<svg width="85" height="85" viewBox="0 0 85 85" fill="none" xmlns="http://www.w3.org/2000/svg">
<path d="M42.4476 20.4958C36.3727 14.7878 26.8278 14.8915 20.902 20.8173C14.9769 26.7423 14.8726 36.2855 20.5782 42.3605C14.798 48.421 14.8954 58.0289 20.8596 63.9931C26.8239 69.9574 36.4318 70.0548 42.4923 64.2746C48.5673 69.9802 58.1105 69.8759 64.0355 63.9508C69.9613 58.025 70.065 48.4801 64.357 42.4052C70.0538 36.34 69.9289 26.7954 63.9932 20.8596C58.0574 14.9239 48.5128 14.799 42.4476 20.4958Z" fill="#C8FF03" stroke="black"/>
<line x1="30.5" y1="34.5" x2="54.5" y2="34.5" stroke="black" stroke-width="2" stroke-linecap="round"/>
<line x1="30.5" y1="41.5" x2="54.5" y2="41.5" stroke="black" stroke-width="2" stroke-linecap="round"/>
<line x1="30.5" y1="48.5" x2="54.5" y2="48.5" stroke="black" stroke-width="2" stroke-linecap="round"/>
</svg>
