<svg width="138" height="94" viewBox="0 0 138 94" fill="none" xmlns="http://www.w3.org/2000/svg">
<path d="M52.6542 17.3886C54.5397 20.059 58.7556 18.8455 58.9463 15.5779C59.1861 11.5276 65.0202 11.1065 65.8046 15.0823C66.4374 18.2866 70.7763 18.8883 72.2836 15.9711C74.154 12.3613 79.6465 14.3403 78.7372 18.2985C78.0026 21.488 81.7132 23.7976 84.2777 21.7433C87.4576 19.1928 91.6536 23.235 89.2127 26.4944C87.2412 29.1222 89.6875 32.7359 92.8597 31.8938C96.7968 30.8506 98.9749 36.2524 95.4207 38.2379C92.5515 39.8445 93.3053 44.1378 96.5436 44.6563C100.563 45.2957 100.346 51.1262 96.2861 51.5075C93.02 51.8119 91.9509 56.0534 94.6877 57.8377C98.09 60.054 95.511 65.3042 91.6573 64.0037C88.5528 62.9586 85.851 66.4082 87.6186 69.1486C89.8153 72.557 85.3251 76.3112 82.3419 73.5634C79.9363 71.3459 76.0661 73.404 76.5596 76.6383C77.17 80.6479 71.5439 82.266 69.9492 78.5448C68.6623 75.5414 64.286 75.8558 63.4254 79.0167C62.3461 82.9332 56.557 82.133 56.619 78.0817C56.6697 74.8151 52.5554 73.33 50.4769 75.8677C47.8966 79.0177 42.9414 75.9375 44.6526 72.2507C46.0333 69.2759 42.8894 66.2536 39.959 67.7311C36.3199 69.5708 33.0591 64.7448 36.131 62.0608C38.6028 59.9015 36.9744 55.8529 33.6935 56.0183C29.6149 56.2258 28.6153 50.4838 32.502 49.2764C35.6391 48.2987 35.8018 43.9368 32.7437 42.7568C28.9535 41.2976 30.3806 35.6316 34.4222 36.1049C37.6806 36.4805 39.6107 32.5524 37.3078 30.2362C34.45 27.363 38.0581 22.7556 41.5533 24.8271C44.369 26.4959 47.7322 23.679 46.5724 20.6227C45.1393 16.8303 50.3111 14.08 52.6484 17.3916L52.6542 17.3886Z" fill="white" stroke="black" stroke-width="1.5" stroke-miterlimit="10"/>
<path d="M17.7481 39.5C21.9398 39.5 26.3997 42.3503 26.3997 48.8893C26.3997 55.4283 21.9398 58.2786 17.7481 58.2786C13.9924 58.2786 10.002 55.7301 9.56602 49.9623H5.97797V57.8427H2.92644V39.8018H5.97797V47.3132H9.63309C10.2702 41.8473 14.0595 39.5 17.7481 39.5ZM17.7481 55.5959C20.5314 55.5959 23.147 53.5169 23.147 48.8893C23.147 44.0605 20.5314 42.1826 17.7481 42.1826C15.2331 42.1826 12.7852 43.9599 12.7852 48.8893C12.7852 53.7181 15.2331 55.5959 17.7481 55.5959Z" fill="black"/>
<path d="M60.4831 52.2022L59.9478 51.1955C55.3145 54.2671 52.5993 56.6604 53.7644 58.8514C54.5674 60.3613 56.2574 60.7539 58.1818 59.7306C60.6985 58.3923 62.4826 55.9623 60.4831 52.2022ZM58.7233 62.1772C55.733 63.7673 52.3643 63.4319 50.8056 60.5008C48.806 56.7406 52.4712 53.3484 58.6069 49.174L58.4022 48.7891C56.8435 45.858 54.7409 45.7608 52.7276 46.8314C50.4775 48.028 49.8341 49.8893 50.7706 51.9359L47.9875 53.4159C46.398 49.8555 48.4538 46.2936 51.5329 44.6562C55.9444 42.3103 59.0006 43.3437 61.3641 47.8597L63.2868 51.5467C64.69 54.2567 65.7688 55.9998 66.8975 57.3366L64.1736 58.7851C63.7699 58.2402 63.3347 57.636 62.8013 56.7044C62.7059 58.8819 61.5656 60.6657 58.7233 62.1772ZM67.9058 29.2651L70.0079 28.1472C70.7157 30.0496 70.551 32.4539 67.1758 34.2488C63.919 35.9807 61.7151 34.8359 60.6224 33.1382L62.7245 32.0203C63.3467 32.9048 64.5139 33.3855 66.2607 32.4566C68.0076 31.5277 68.2912 30.2755 67.9058 29.2651ZM80.712 49.9903L74.3198 37.9698L72.4812 54.3673L69.7869 55.8L61.3164 39.8713L64.0107 38.4386L70.4029 50.4591L72.2415 34.0616L74.9358 32.6289L83.4063 48.5576L80.712 49.9903Z" fill="black"/>
<path d="M115.226 57.8427L109.022 49.8282H106.709V57.8427H103.624V39.8018H106.709V47.1791H108.955L114.69 39.8018H118.311L111.504 48.3192L119.015 57.8427H115.226ZM131.698 50.2977V49.1575C126.165 49.6941 122.644 50.5324 122.644 53.0139C122.644 54.7241 123.951 55.8642 126.131 55.8642C128.981 55.8642 131.698 54.5564 131.698 50.2977ZM125.46 58.2786C122.074 58.2786 119.257 56.4007 119.257 53.0809C119.257 48.8222 124.086 47.548 131.463 46.7432V46.3072C131.463 42.9874 129.652 41.9144 127.372 41.9144C124.823 41.9144 123.381 43.2557 123.247 45.5024H120.095C120.363 41.6126 123.851 39.4329 127.338 39.4329C132.335 39.4329 134.548 41.7802 134.514 46.8773L134.481 51.0354C134.447 54.0869 134.582 56.1325 134.95 57.8427H131.865C131.765 57.172 131.664 56.4343 131.631 55.3612C130.524 57.2391 128.68 58.2786 125.46 58.2786Z" fill="black"/>
</svg>
