<svg width="116" height="79" viewBox="0 0 116 79" fill="none" xmlns="http://www.w3.org/2000/svg">
<path d="M44.3416 14.7764C45.9294 17.0253 49.4799 16.0033 49.6405 13.2516C49.8424 9.84057 54.7556 9.48591 55.4162 12.8342C55.9491 15.5327 59.6032 16.0394 60.8726 13.5827C62.4477 10.5426 67.0733 12.2093 66.3074 15.5427C65.6889 18.2288 68.8137 20.1738 70.9734 18.4437C73.6514 16.2958 77.1851 19.7 75.1295 22.4449C73.4692 24.6579 75.5293 27.7012 78.2008 26.992C81.5164 26.1135 83.3507 30.6626 80.3575 32.3347C77.9413 33.6877 78.5761 37.3033 81.3032 37.74C84.688 38.2785 84.5055 43.1887 81.0863 43.5098C78.3358 43.7661 77.4355 47.3381 79.7402 48.8408C82.6055 50.7073 80.4336 55.1287 77.1882 54.0335C74.5737 53.1534 72.2984 56.0584 73.787 58.3663C75.6369 61.2367 71.8555 64.3983 69.3432 62.0842C67.3173 60.2168 64.058 61.95 64.4736 64.6738C64.9876 68.0505 60.2496 69.4132 58.9066 66.2793C57.8229 63.75 54.1373 64.0148 53.4126 66.6768C52.5036 69.975 47.6283 69.3012 47.6805 65.8894C47.7233 63.1384 44.2584 61.8877 42.508 64.0248C40.3349 66.6776 36.1619 64.0836 37.603 60.9787C38.7658 58.4735 36.1181 55.9283 33.6503 57.1726C30.5856 58.7219 27.8395 54.6576 30.4265 52.3973C32.5081 50.5788 31.1368 47.1693 28.3737 47.3085C24.9389 47.4833 24.0971 42.6477 27.3703 41.6309C30.0122 40.8075 30.1493 37.1341 27.5739 36.1403C24.3819 34.9115 25.5838 30.1398 28.9875 30.5384C31.7315 30.8547 33.357 27.5467 31.4175 25.5961C29.0109 23.1764 32.0494 19.2963 34.9929 21.0408C37.3641 22.4462 40.1965 20.0739 39.2198 17.5001C38.0129 14.3062 42.3683 11.9901 44.3367 14.779L44.3416 14.7764Z" fill="white" stroke="black" stroke-miterlimit="10"/>
<path d="M15.1565 33.6593C18.6865 33.6593 22.4424 36.0598 22.4424 41.5666C22.4424 47.0734 18.6865 49.4738 15.1565 49.4738C11.9936 49.4738 8.63303 47.3276 8.26591 42.4703H5.24421V49.1067H2.67436V33.9135H5.24421V40.2393H8.32239C8.85895 35.6362 12.0501 33.6593 15.1565 33.6593ZM15.1565 47.2146C17.5004 47.2146 19.7032 45.4637 19.7032 41.5666C19.7032 37.5 17.5004 35.9186 15.1565 35.9186C13.0385 35.9186 10.977 37.4153 10.977 41.5666C10.977 45.6332 13.0385 47.2146 15.1565 47.2146Z" fill="black"/>
<path d="M51.1274 44.2895L50.6766 43.4417C46.7747 46.0284 44.4881 48.044 45.4693 49.8891C46.1455 51.1607 47.5687 51.4914 49.1894 50.6295C51.3088 49.5025 52.8114 47.4561 51.1274 44.2895ZM49.6454 52.6899C47.1271 54.0291 44.2902 53.7466 42.9775 51.2782C41.2936 48.1116 44.3802 45.2547 49.5474 41.7393L49.375 41.4152C48.0624 38.9467 46.2917 38.8648 44.5962 39.7665C42.7012 40.7742 42.1594 42.3417 42.948 44.0653L40.6042 45.3116C39.2656 42.3132 40.9969 39.3136 43.59 37.9346C47.3052 35.959 49.879 36.8292 51.8694 40.6324L53.4886 43.7375C54.6703 46.0197 55.5788 47.4877 56.5293 48.6134L54.2354 49.8333C53.8954 49.3744 53.5289 48.8656 53.0797 48.081C52.9994 49.9149 52.0391 51.4171 49.6454 52.6899ZM57.3785 24.9729L59.1488 24.0315C59.7449 25.6336 59.6062 27.6584 56.7637 29.17C54.021 30.6285 52.165 29.6644 51.2448 28.2347L53.0151 27.2933C53.5391 28.0381 54.522 28.443 55.9931 27.6607C57.4642 26.8784 57.703 25.8238 57.3785 24.9729ZM68.1633 42.4268L62.7801 32.3036L61.2317 46.1128L58.9627 47.3194L51.8293 33.905L54.0982 32.6984L59.4815 42.8216L61.0299 29.0124L63.2988 27.8058L70.4323 41.2202L68.1633 42.4268Z" fill="black"/>
<path d="M97.0369 49.1067L91.8125 42.3573H89.8639V49.1067H87.2658V33.9135H89.8639V40.1263H91.756L96.585 33.9135H99.635L93.9022 41.0865L100.228 49.1067H97.0369ZM110.909 42.7527V41.7925C106.249 42.2443 103.284 42.9503 103.284 45.0401C103.284 46.4804 104.385 47.4405 106.221 47.4405C108.621 47.4405 110.909 46.3392 110.909 42.7527ZM105.656 49.4738C102.804 49.4738 100.431 47.8924 100.431 45.0966C100.431 41.5101 104.498 40.437 110.711 39.7592V39.3921C110.711 36.5963 109.186 35.6926 107.266 35.6926C105.119 35.6926 103.905 36.8222 103.792 38.7143H101.137C101.363 35.4385 104.3 33.6029 107.237 33.6029C111.445 33.6029 113.309 35.5797 113.281 39.8722L113.252 43.3739C113.224 45.9438 113.337 47.6664 113.648 49.1067H111.05C110.965 48.5419 110.88 47.9206 110.852 47.0169C109.92 48.5984 108.367 49.4738 105.656 49.4738Z" fill="black"/>
</svg>
