<svg width="70" height="70" viewBox="0 0 70 70" fill="none" xmlns="http://www.w3.org/2000/svg">
<path d="M23.182 5.38858C25.0675 8.05896 29.2834 6.84547 29.4741 3.57794C29.7139 -0.472389 35.548 -0.893528 36.3324 3.08228C36.9652 6.28661 41.3042 6.88828 42.8115 3.97108C44.6818 0.361255 50.1744 2.34028 49.265 6.29854C48.5305 9.488 52.241 11.7976 54.8056 9.74328C57.9854 7.1928 62.1814 11.235 59.7406 14.4944C57.7691 17.1222 60.2153 20.7359 63.3875 19.8938C67.3246 18.8506 69.5027 24.2524 65.9485 26.2379C63.0794 27.8445 63.8331 32.1378 67.0714 32.6563C71.0907 33.2957 70.874 39.1262 66.8139 39.5075C63.5478 39.8119 62.4788 44.0534 65.2155 45.8377C68.6179 48.054 66.0388 53.3042 62.1852 52.0037C59.0806 50.9586 56.3788 54.4082 58.1464 57.1486C60.3431 60.557 55.8529 64.3112 52.8698 61.5634C50.4642 59.3459 46.594 61.404 47.0875 64.6383C47.6978 68.6479 42.0717 70.266 40.477 66.5448C39.1902 63.5414 34.8138 63.8558 33.9533 67.0167C32.8739 70.9332 27.0848 70.133 27.1468 66.0817C27.1975 62.8151 23.0832 61.33 21.0048 63.8677C18.4244 67.0177 13.4692 63.9375 15.1805 60.2507C16.5611 57.2759 13.4173 54.2536 10.4868 55.7311C6.84772 57.5708 3.5869 52.7448 6.65882 50.0608C9.13064 47.9015 7.50225 43.8529 4.22129 44.0183C0.142691 44.2258 -0.856917 38.4838 3.02981 37.2764C6.1669 36.2987 6.32965 31.9368 3.27155 30.7568C-0.518654 29.2976 0.908403 23.6316 4.95007 24.1049C8.20841 24.4805 10.1386 20.5524 7.83563 18.2362C4.97787 15.363 8.58589 10.7556 12.0811 12.8271C14.8968 14.4959 18.2601 11.679 17.1003 8.62273C15.6671 4.83026 20.839 2.08001 23.1763 5.39164L23.182 5.38858Z" fill="#FF4702"/>
</svg>
