<svg width="129" height="128" viewBox="0 0 129 128" fill="none" xmlns="http://www.w3.org/2000/svg">
<path d="M48.1677 23.8064C50.7491 27.4624 56.5212 25.801 56.7822 21.3275C57.1105 15.7822 65.098 15.2056 66.172 20.6489C67.0383 25.0359 72.9787 25.8597 75.0424 21.8657C77.6031 16.9235 85.1229 19.633 83.8779 25.0522C82.8723 29.4189 87.9523 32.581 91.4635 29.7684C95.8171 26.2766 101.562 31.8108 98.22 36.2732C95.5208 39.8709 98.87 44.8184 103.213 43.6654C108.603 42.2372 111.585 49.6328 106.719 52.3512C102.791 54.5508 103.823 60.4287 108.257 61.1386C113.759 62.0141 113.463 69.9966 107.904 70.5186C103.433 70.9353 101.969 76.7424 105.716 79.1853C110.374 82.2197 106.843 89.4077 101.567 87.6272C97.3165 86.1963 93.6175 90.9191 96.0375 94.6711C99.045 99.3376 92.8974 104.477 88.8132 100.715C85.5197 97.6794 80.221 100.497 80.8967 104.925C81.7323 110.415 74.0296 112.63 71.8463 107.535C70.0844 103.423 64.0928 103.854 62.9146 108.182C61.4369 113.544 53.511 112.448 53.5959 106.901C53.6654 102.429 48.0325 100.396 45.1868 103.87C41.654 108.183 34.87 103.966 37.2128 98.9181C39.103 94.8454 34.7988 90.7075 30.7868 92.7304C25.8044 95.2491 21.34 88.6418 25.5458 84.9671C28.93 82.0109 26.7005 76.468 22.2086 76.6943C16.6246 76.9784 15.256 69.1171 20.5773 67.4641C24.8723 66.1255 25.0951 60.1535 20.9083 58.538C15.7191 56.5403 17.6729 48.7829 23.2064 49.4309C27.6673 49.9451 30.3099 44.5672 27.157 41.3961C23.2444 37.4623 28.1841 31.1545 32.9695 33.9905C36.8244 36.2753 41.4291 32.4186 39.8412 28.2343C37.8791 23.042 44.9598 19.2766 48.1598 23.8106L48.1677 23.8064Z" fill="white" stroke="black" stroke-width="1.5" stroke-miterlimit="10"/>
<path d="M58.7274 71.5929L57.9945 70.2147C51.6511 74.4199 47.9338 77.6967 49.5289 80.6963C50.6282 82.7636 52.942 83.3011 55.5768 81.9C59.0223 80.0677 61.465 76.7409 58.7274 71.5929ZM56.3181 85.2496C52.224 87.4268 47.612 86.9675 45.4779 82.9545C42.7404 77.8065 47.7583 73.1621 56.1588 67.447L55.8785 66.9201C53.7445 62.9071 50.8658 62.774 48.1094 64.2397C45.0287 65.878 44.148 68.4263 45.4301 71.2284L41.6197 73.2546C39.4436 68.3801 42.2581 63.5035 46.4738 61.2617C52.5135 58.0499 56.6978 59.4647 59.9337 65.6476L62.5661 70.6955C64.4871 74.4058 65.9641 76.7922 67.5094 78.6224L63.7801 80.6055C63.2274 79.8595 62.6316 79.0324 61.9013 77.7568C61.7707 80.7381 60.2095 83.1803 56.3181 85.2496ZM68.8898 40.1897L71.7678 38.6592C72.7369 41.2638 72.5114 44.5556 67.8904 47.0129C63.4315 49.384 60.4142 47.8167 58.9181 45.4924L61.7962 43.9619C62.6481 45.1728 64.246 45.831 66.6376 44.5592C69.0292 43.2875 69.4175 41.573 68.8898 40.1897ZM86.4229 68.5647L77.6713 52.1073L75.1541 74.5571L71.4654 76.5187L59.8684 54.7107L63.5571 52.7492L72.3087 69.2065L74.8259 46.7567L78.5146 44.7951L90.1116 66.6031L86.4229 68.5647Z" fill="black"/>
</svg>
