<svg width="85" height="85" viewBox="0 0 85 85" fill="none" xmlns="http://www.w3.org/2000/svg">
<path d="M42.4476 20.4958C36.3727 14.7878 26.8278 14.8915 20.902 20.8173C14.9769 26.7424 14.8726 36.2855 20.5782 42.3605C14.798 48.4211 14.8954 58.0289 20.8596 63.9932C26.8239 69.9574 36.4318 70.0548 42.4923 64.2746C48.5673 69.9799 58.1106 69.8758 64.0355 63.9508C69.9613 58.025 70.065 48.4801 64.357 42.4052C70.0538 36.3401 69.9289 26.7954 63.9932 20.8597C58.0574 14.9239 48.5128 14.799 42.4476 20.4958Z" fill="#FF4702" stroke="black"/>
<path fill-rule="evenodd" clip-rule="evenodd" d="M32.707 33.0919C33.0975 32.7014 33.7306 32.7014 34.1212 33.0919L51.0917 50.0624C51.4823 50.453 51.4823 51.0861 51.0917 51.4767C50.7012 51.8672 50.068 51.8672 49.6775 51.4767L32.707 34.5061C32.3164 34.1156 32.3164 33.4824 32.707 33.0919Z" fill="black"/>
<path fill-rule="evenodd" clip-rule="evenodd" d="M33.1212 51.0919C32.7306 50.7014 32.7306 50.0682 33.1212 49.6777L50.0917 32.7071C50.4823 32.3166 51.1154 32.3166 51.5059 32.7071C51.8965 33.0976 51.8965 33.7308 51.5059 34.1213L34.5354 51.0919C34.1449 51.4824 33.5117 51.4824 33.1212 51.0919Z" fill="black"/>
</svg>
